<?xml version="1.0" encoding="UTF-8" standalone="no"?>
<!-- Created with Inkscape (http://www.inkscape.org/) -->

<svg
   width="471.67508mm"
   height="673.85406mm"
   viewBox="0 0 471.67508 673.85406"
   version="1.1"
   id="svg46284"
   inkscape:version="1.1.2 (b8e25be833, 2022-02-05)"
   sodipodi:docname="Treehouse.svg"
   xmlns:inkscape="http://www.inkscape.org/namespaces/inkscape"
   xmlns:sodipodi="http://sodipodi.sourceforge.net/DTD/sodipodi-0.dtd"
   xmlns="http://www.w3.org/2000/svg"
   xmlns:svg="http://www.w3.org/2000/svg">
  <sodipodi:namedview
     id="namedview46286"
     pagecolor="#505050"
     bordercolor="#ffffff"
     borderopacity="1"
     inkscape:pageshadow="0"
     inkscape:pageopacity="0"
     inkscape:pagecheckerboard="1"
     inkscape:document-units="mm"
     showgrid="false"
     fit-margin-top="0"
     fit-margin-left="0"
     fit-margin-right="0"
     fit-margin-bottom="0"
     inkscape:zoom="0.17171191"
     inkscape:cx="2320.7476"
     inkscape:cy="1438.4558"
     inkscape:window-width="1920"
     inkscape:window-height="1009"
     inkscape:window-x="-8"
     inkscape:window-y="-8"
     inkscape:window-maximized="1"
     inkscape:current-layer="layer1" />
  <defs
     id="defs46281" />
  <g
     inkscape:label="Layer 1"
     inkscape:groupmode="layer"
     id="layer1"
     transform="translate(33.9854,190.16048)">
    <g
       id="g43136"
       transform="translate(442.43562,-237.56999)">
      <g
         id="g43102">
        <path
           id="path33171"
           style="fill:#92a822;fill-opacity:1;stroke:none;stroke-width:1.00012;stroke-linecap:round;stroke-linejoin:round;paint-order:markers stroke fill;stop-color:#000000"
           d="m -274.56875,47.40951 a 54.972931,53.516685 0 0 0 -52.17976,36.766229 81.937912,79.767355 0 0 0 -36.41948,-8.316804 81.937912,79.767355 0 0 0 -81.93815,79.767735 81.937912,79.767355 0 0 0 7.34684,32.89619 71.649809,69.751791 0 0 0 -38.66172,61.86651 71.649809,69.751791 0 0 0 30.20384,56.85286 116.33463,113.2529 0 0 0 -19.41794,62.56311 116.33463,113.2529 0 0 0 116.33502,113.25302 116.33463,113.2529 0 0 0 81.51957,-32.56182 119.86709,116.69178 0 0 0 88.74496,38.31185 119.86709,116.69178 0 0 0 119.867098,-116.69157 119.86709,116.69178 0 0 0 -0.03048,-2.31666 80.297477,78.170378 0 0 0 54.4530216,-73.9557 80.297477,78.170378 0 0 0 -58.8057356,-75.31322 38.353695,37.337695 0 0 0 8.387107,-23.30142 38.353695,37.337695 0 0 0 -33.160256,-36.99102 85.837225,83.563377 0 0 0 4.371314,-26.18445 85.837225,83.563377 0 0 0 -85.837159,-83.563376 85.837225,83.563377 0 0 0 -58.14115,22.103561 54.972931,53.516685 0 0 0 -46.63694,-25.185025 z" />
        <path
           id="path33171-9"
           style="fill:#768a11;fill-opacity:1;stroke:none;stroke-width:1.00012;stroke-linecap:round;stroke-linejoin:round;paint-order:markers stroke fill;stop-color:#000000"
           d="m -235.54737,220.61961 a 54.084034,49.541162 0 0 0 -51.33587,34.03513 80.612998,73.841784 0 0 0 -35.83037,-7.69876 80.612998,73.841784 0 0 0 -80.61368,73.84199 80.612998,73.841784 0 0 0 7.2285,30.45241 70.491251,64.570233 0 0 0 -38.03696,57.27094 70.491251,64.570233 0 0 0 29.7155,52.62933 114.45353,104.83983 0 0 0 -3.992,6.13762 116.33463,113.2529 0 0 0 59.11215,15.77009 116.33463,113.2529 0 0 0 81.51957,-32.56182 119.86709,116.69178 0 0 0 88.74496,38.31185 119.86709,116.69178 0 0 0 119.867098,-116.69157 119.86709,116.69178 0 0 0 -0.03048,-2.31666 80.297477,78.170378 0 0 0 36.109936,-24.51891 37.733528,34.564039 0 0 0 -29.22561,-20.21375 84.44926,77.355815 0 0 0 4.300537,-24.23935 84.44926,77.355815 0 0 0 -84.449121,-77.35601 84.44926,77.355815 0 0 0 -57.20115,20.46181 54.084034,49.541162 0 0 0 -45.88301,-23.31434 z" />
        <path
           id="path40968"
           style="fill:#abc528;fill-opacity:1;stroke:none;stroke-width:1.00012;stroke-linecap:round;stroke-linejoin:round;paint-order:markers stroke fill;stop-color:#000000"
           d="m -306.17895,109.37828 a 37.365757,30.817121 0 0 0 -35.71306,21.78988 37.365757,30.817121 0 0 0 -12.43851,-1.75906 37.365757,30.817121 0 0 0 -37.36618,30.81724 37.365757,30.817121 0 0 0 22.0462,28.10164 37.365757,30.817121 0 0 0 -0.8594,6.56756 37.365757,30.817121 0 0 0 37.36568,30.81724 37.365757,30.817121 0 0 0 31.19345,-13.86996 37.365757,30.817121 0 0 0 19.65513,4.62453 37.365757,30.817121 0 0 0 37.36568,-30.81673 37.365757,30.817121 0 0 0 -0.18242,-3.04064 37.365757,30.817121 0 0 0 16.36128,-25.46511 37.365757,30.817121 0 0 0 -37.36567,-30.81724 37.365757,30.817121 0 0 0 -6.41099,0.47646 37.365757,30.817121 0 0 0 -33.65119,-17.42581 z" />
      </g>
      <g
         id="g36493">
        <rect
           style="fill:#f3a45c;fill-opacity:1;stroke:none;stroke-width:0.29368;stroke-linecap:round;stroke-linejoin:round;paint-order:markers stroke fill;stop-color:#000000"
           id="rect858-8-8-9"
           width="11.034214"
           height="127.57446"
           x="-293.84906"
           y="-451.52539"
           transform="matrix(-0.47036515,-0.88247189,0.8478532,-0.53023104,0,0)" />
        <rect
           style="fill:#f3a45c;fill-opacity:1;stroke:none;stroke-width:0.29368;stroke-linecap:round;stroke-linejoin:round;paint-order:markers stroke fill;stop-color:#000000"
           id="rect858-8-8-3-8"
           width="11.034214"
           height="127.57446"
           x="-553.8714"
           y="-18.766104"
           transform="matrix(0.47036515,-0.88247189,-0.8478532,-0.53023104,0,0)" />
      </g>
      <path
         style="fill:#854809;fill-opacity:1;stroke:none;stroke-width:0.264583px;stroke-linecap:butt;stroke-linejoin:miter;stroke-opacity:1"
         d="m -298.15563,429.1284 c 0,0 -8.62151,46.26511 -6.16344,69.33852 2.47816,23.262 22.03354,43.66607 20.80157,67.02724 -1.26616,24.00953 -13.0274,47.85901 -28.50584,66.2568 -18.75529,22.29267 -52.64483,27.11242 -73.19066,47.76655 -6.6816,6.71682 -15.40856,23.88328 -15.40856,23.88328 0,0 70.93247,16.37898 107.08949,17.71983 28.60162,1.06067 57.13579,-4.00889 85.51751,-7.70427 21.18427,-2.75825 41.82413,-11.50532 63.1751,-10.786 21.91283,0.73825 63.945521,15.40856 63.945521,15.40856 0,0 -24.493801,-53.39761 -41.603111,-77.0428 -15.33499,-21.19307 -36.95597,-37.10711 -53.92996,-57.01168 -9.03223,-10.59165 -23.11839,-19.40077 -25.42413,-33.1284 -3.63202,-21.62386 19.35804,-40.52547 20.80156,-62.40467 1.34288,-20.35391 -11.55642,-60.09338 -11.55642,-60.09338 z"
         id="path19214"
         sodipodi:nodetypes="csssscssscsssscc" />
      <path
         id="path19214-2"
         style="fill:#783c00;fill-opacity:1;stroke:none;stroke-width:0.264583px;stroke-linecap:butt;stroke-linejoin:miter;stroke-opacity:1"
         d="m -192.60694,428.35812 -30.30101,0.22118 c -2.41628,16.45198 -6.06266,43.43497 -6.56134,59.93381 -0.77478,25.63389 -4.05726,52.58792 4.3584,76.81338 7.57162,21.79587 34.67214,34.15281 39.76862,56.6565 4.59604,20.29396 1.79784,44.66638 -10.35079,61.55954 -12.3796,17.21435 -35.75812,24.01983 -56.11183,29.96253 -14.17868,4.13975 -36.01453,5.91987 -54.75375,6.66523 4.66141,0.4672 9.061,0.8033 13.02555,0.95033 28.60164,1.06066 57.13605,-4.00908 85.51778,-7.70446 21.18427,-2.75825 41.82399,-11.50522 63.17496,-10.7859 21.91283,0.73824 63.945449,15.40889 63.945449,15.40889 0,0 -24.493839,-53.39765 -41.603149,-77.04286 -15.33499,-21.19307 -36.95605,-37.10744 -53.93004,-57.01202 -9.03223,-10.59164 -23.11855,-19.40057 -25.42428,-33.12821 -3.63202,-21.62384 19.35831,-40.52525 20.80183,-62.40444 1.34287,-20.35392 -11.5564,-60.0935 -11.5564,-60.0935 z" />
      <g
         id="g36369">
        <rect
           style="fill:#d57a1d;fill-opacity:1;stroke:none;stroke-width:1.1005;stroke-linecap:round;stroke-linejoin:round;paint-order:markers stroke fill;stop-color:#000000"
           id="rect858"
           width="178.17409"
           height="110.94164"
           x="-333.69797"
           y="306.24515" />
        <rect
           style="fill:#d57a1d;fill-opacity:1;stroke:none;stroke-width:0.490069;stroke-linecap:round;stroke-linejoin:round;paint-order:markers stroke fill;stop-color:#000000"
           id="rect858-1"
           width="226.12973"
           height="17.334621"
           x="-357.67578"
           y="-434.52142"
           transform="scale(1,-1)" />
        <rect
           style="fill:#c36a0e;fill-opacity:1;stroke:none;stroke-width:0.415227;stroke-linecap:round;stroke-linejoin:round;paint-order:markers stroke fill;stop-color:#000000"
           id="rect858-7"
           width="178.17409"
           height="15.793783"
           x="-333.69797"
           y="401.39301" />
        <rect
           style="fill:#c36a0e;fill-opacity:1;stroke:none;stroke-width:0.415227;stroke-linecap:round;stroke-linejoin:round;paint-order:markers stroke fill;stop-color:#000000"
           id="rect858-7-8"
           width="178.17409"
           height="15.793783"
           x="-333.69797"
           y="367.10898" />
        <rect
           style="fill:#c36a0e;fill-opacity:1;stroke:none;stroke-width:0.415227;stroke-linecap:round;stroke-linejoin:round;paint-order:markers stroke fill;stop-color:#000000"
           id="rect858-7-8-7"
           width="178.17409"
           height="15.793783"
           x="-333.69797"
           y="334.75101" />
        <rect
           style="fill:#f3a45c;fill-opacity:1;stroke:none;stroke-width:0.576701;stroke-linecap:round;stroke-linejoin:round;paint-order:markers stroke fill;stop-color:#000000"
           id="rect858-9-5"
           width="72.210258"
           height="75.17305"
           x="-280.71603"
           y="342.01373" />
        <rect
           style="fill:#6c3d09;fill-opacity:1;stroke:none;stroke-width:0.466907;stroke-linecap:round;stroke-linejoin:round;paint-order:markers stroke fill;stop-color:#000000"
           id="rect858-9"
           width="52.949558"
           height="67.198227"
           x="-271.08569"
           y="349.98856" />
        <rect
           style="fill:#532a01;fill-opacity:1;stroke:none;stroke-width:0.163702;stroke-linecap:round;stroke-linejoin:round;paint-order:markers stroke fill;stop-color:#000000"
           id="rect858-9-52"
           width="52.949558"
           height="8.2604837"
           x="-271.08569"
           y="349.98856" />
        <rect
           style="fill:#532a01;fill-opacity:1;stroke:none;stroke-width:0.216137;stroke-linecap:round;stroke-linejoin:round;paint-order:markers stroke fill;stop-color:#000000"
           id="rect858-9-8"
           width="11.346445"
           height="67.198227"
           x="-271.08569"
           y="349.98856" />
        <path
           sodipodi:type="star"
           style="fill:#d57a1d;fill-opacity:1;stroke:none;stroke-width:3.78;stroke-linecap:round;stroke-linejoin:round;paint-order:markers stroke fill;stop-color:#000000"
           id="path4750"
           inkscape:flatsided="true"
           sodipodi:sides="3"
           sodipodi:cx="-1736.9209"
           sodipodi:cy="176.16716"
           sodipodi:r1="200.81239"
           sodipodi:r2="100.4062"
           sodipodi:arg1="0.52359878"
           sodipodi:arg2="1.5707963"
           inkscape:rounded="0"
           inkscape:randomized="0"
           transform="matrix(0.56079759,0,0,0.17762139,729.45014,258.64669)"
           inkscape:transform-center-x="-1.7049623e-05"
           inkscape:transform-center-y="-8.9171447"
           d="m -1563.0123,276.57336 -347.8172,0 173.9086,-301.218593 z" />
        <rect
           style="fill:#c36a0e;fill-opacity:1;stroke:none;stroke-width:0.415227;stroke-linecap:round;stroke-linejoin:round;paint-order:markers stroke fill;stop-color:#000000"
           id="rect858-7-8-7-3"
           width="178.17409"
           height="15.793783"
           x="-333.69797"
           y="304.70432" />
        <path
           id="rect858-7-8-7-3-9"
           style="fill:#c36a0e;fill-opacity:1;stroke:none;stroke-width:0.384519;stroke-linecap:round;stroke-linejoin:round;paint-order:markers stroke fill;stop-color:#000000"
           d="m -282.47846,275.04293 -28.78947,15.79387 h 133.31384 l -28.78946,-15.79387 z" />
        <g
           id="g7008"
           transform="translate(47.56363,191.06615)">
          <rect
             style="fill:#f3a45c;fill-opacity:1;stroke:none;stroke-width:0.29368;stroke-linecap:round;stroke-linejoin:round;paint-order:markers stroke fill;stop-color:#000000"
             id="rect858-8-8"
             width="11.034214"
             height="127.57446"
             x="-109.85169"
             y="283.66248"
             transform="matrix(0.47036515,0.88247189,-0.84785319,0.53023104,0,0)" />
          <rect
             style="fill:#f3a45c;fill-opacity:1;stroke:none;stroke-width:0.29368;stroke-linecap:round;stroke-linejoin:round;paint-order:markers stroke fill;stop-color:#000000"
             id="rect858-8-8-3"
             width="11.034214"
             height="127.57446"
             x="200.73099"
             y="-233.24519"
             transform="matrix(-0.47036515,0.88247189,0.8478532,0.53023104,0,0)" />
        </g>
      </g>
      <g
         id="g36377">
        <path
           style="fill:#e28f3b;fill-opacity:1;stroke:none;stroke-width:0.16097px;stroke-linecap:butt;stroke-linejoin:miter;stroke-opacity:1"
           d="m -262.70038,466.17364 0.33143,-16.24039 47.06397,0.66288 v 16.57183 z"
           id="path22695" />
        <path
           style="fill:#e28f3b;fill-opacity:1;stroke:none;stroke-width:0.16097px;stroke-linecap:butt;stroke-linejoin:miter;stroke-opacity:1"
           d="m -270.9197,497.66319 -1.11023,-16.20579 46.93729,-3.51381 1.46975,16.50652 z"
           id="path22695-2" />
        <path
           style="fill:#e28f3b;fill-opacity:1;stroke:none;stroke-width:0.16097px;stroke-linecap:butt;stroke-linejoin:miter;stroke-opacity:1"
           d="m -260.48709,525.01541 0.33143,-16.24039 47.06397,0.66288 v 16.57183 z"
           id="path22695-9" />
        <path
           style="fill:#e28f3b;fill-opacity:1;stroke:none;stroke-width:0.16097px;stroke-linecap:butt;stroke-linejoin:miter;stroke-opacity:1"
           d="m -268.70641,556.50496 -1.11023,-16.20579 46.93729,-3.51381 1.46975,16.50652 z"
           id="path22695-2-5" />
        <path
           style="fill:#e28f3b;fill-opacity:1;stroke:none;stroke-width:0.16097px;stroke-linecap:butt;stroke-linejoin:miter;stroke-opacity:1"
           d="m -255.03934,582.76155 0.33143,-16.24039 47.06397,0.66288 v 16.57183 z"
           id="path22695-9-4" />
        <path
           style="fill:#e28f3b;fill-opacity:1;stroke:none;stroke-width:0.16097px;stroke-linecap:butt;stroke-linejoin:miter;stroke-opacity:1"
           d="m -263.25866,614.2511 -1.11023,-16.20579 46.93729,-3.51381 1.46975,16.50652 z"
           id="path22695-2-5-5" />
      </g>
    </g>
  </g>
</svg>
